HIERARCHY
ROOT hip
{
	OFFSET 0.000000 0.000000 0.000000 
	CHANNELS 6 Xposition Yposition Zposition Xrotation Zrotation Yrotation
	JOINT abdomen
	{
		OFFSET 0.000000 3.402643 0.000000 
		CHANNELS 3 Xrotation Zrotation Yrotation
		JOINT chest
		{
			OFFSET 0.000000 8.438565 -0.680529 
			CHANNELS 3 Xrotation Zrotation Yrotation
			JOINT neck
			{
				OFFSET 0.000000 10.207942 -0.272212 
				CHANNELS 3 Xrotation Zrotation Yrotation
				JOINT head
				{
					OFFSET 0.000000 3.130431 0.000000 
					CHANNELS 3 Xrotation Zrotation Yrotation
					End Site
					{
						OFFSET 0.000000 3.130435 0.000000 
					}
				}
			}
			JOINT lCollar
			{
				OFFSET 3.470700 6.669187 -0.816635 
				CHANNELS 3 Yrotation Zrotation Xrotation
				JOINT lShldr
				{
					OFFSET 3.198488 0.000000 0.000000 
					CHANNELS 3 Zrotation Yrotation Xrotation
					JOINT lForeArm
					{
						OFFSET 10.139888 0.000000 0.000000 
						CHANNELS 3 Yrotation Zrotation Xrotation
						JOINT lHand
						{
							OFFSET 8.370511 0.000000 0.000000 
							CHANNELS 3 Zrotation Yrotation Xrotation
							End Site
							{
								OFFSET 4.083176 0.000000 0.000000 
							}
						}
					}
				}
			}
			JOINT rCollar
			{
				OFFSET -3.470700 6.669187 -0.816635 
				CHANNELS 3 Yrotation Zrotation Xrotation
				JOINT rShldr
				{
					OFFSET -3.198488 0.000000 0.000000 
					CHANNELS 3 Zrotation Yrotation Xrotation
					JOINT rForeArm
					{
						OFFSET -10.139888 0.000000 0.000000 
						CHANNELS 3 Yrotation Zrotation Xrotation
						JOINT rHand
						{
							OFFSET -8.370511 0.000000 0.000000 
							CHANNELS 3 Zrotation Yrotation Xrotation
							End Site
							{
								OFFSET -4.083176 0.000000 0.000000 
							}
						}
					}
				}
			}
		}
	}
	JOINT lThigh
	{
		OFFSET 5.308129 -1.633274 1.361059 
		CHANNELS 3 Xrotation Zrotation Yrotation
		JOINT lShin
		{
			OFFSET -2.041588 -20.007561 0.000000 
			CHANNELS 3 Xrotation Zrotation Yrotation
			JOINT lFoot
			{
				OFFSET 0.000000 -19.190928 -1.224953 
				CHANNELS 3 Xrotation Yrotation Zrotation
				End Site
				{
					OFFSET 0.000000 -2.449906 4.627600 
				}
			}
		}
	}
	JOINT rThigh
	{
		OFFSET -5.308129 -1.633274 1.361059 
		CHANNELS 3 Xrotation Zrotation Yrotation
		JOINT rShin
		{
			OFFSET 2.041588 -20.007561 0.000000 
			CHANNELS 3 Xrotation Zrotation Yrotation
			JOINT rFoot
			{
				OFFSET 0.000000 -19.190928 -1.224953 
				CHANNELS 3 Xrotation Yrotation Zrotation
				End Site
				{
					OFFSET 0.000000 -2.449906 4.627600 
				}
			}
		}
	}
}
MOTION
Frames: 13
Frame Time: 0.033333
0.077450 11.520962 0.077450 7.724313 -3.382095 -25.624044 14.322717 13.923739 -17.612957 10.976563 0.000000 -0.019531 -8.544920 -0.009766 -0.009767 16.516544 12.370691 46.605595 1.992188 -2.001953 0.000341 -39.286076 -55.237350 -22.512518 -60.381592 -0.534810 8.675547 -49.887753 -35.167500 -143.327072 -2.001953 1.992188 0.000000 126.219749 45.880207 76.821960 77.327530 0.499861 8.849734 14.177624 -60.229427 -39.609661 -145.958206 30.428308 -24.168285 120.609818 4.487741 -3.461937 6.731648 7.977951 5.595486 -31.460852 -28.620848 11.815089 127.979004 -5.034962 3.048637 -31.754454 23.595190 39.079247 
0.077450 11.518723 0.077450 7.724313 -3.382095 -25.624044 14.322717 13.923739 -17.612957 10.976563 0.000000 -0.019531 -8.544920 -0.009766 -0.009767 16.516544 12.370691 46.605595 1.992188 -2.001953 0.000341 -39.286076 -55.237350 -22.512518 -60.381592 -0.534810 8.675547 -49.887753 -35.167500 -143.327072 -2.001953 1.992188 0.000000 126.219749 45.880207 76.821960 77.327530 0.499861 8.849734 14.177624 -60.229427 -39.609661 -145.958206 30.428308 -24.168285 120.609818 4.487741 -3.461937 6.731649 7.977951 5.595487 -31.460852 -28.620852 11.815087 127.979004 -5.034964 3.048634 -31.754452 23.595192 39.079247 
0.077450 11.516486 0.077450 7.724313 -3.382095 -25.624044 14.322717 13.923739 -17.612957 10.976563 0.000000 -0.019531 -8.544920 -0.009766 -0.009767 16.516544 12.370691 46.605595 1.992188 -2.001953 0.000341 -39.286076 -55.237350 -22.512518 -60.381592 -0.534810 8.675547 -49.887753 -35.167500 -143.327072 -2.001953 1.992188 0.000000 126.219749 45.880207 76.821960 77.327530 0.499861 8.849734 14.177624 -60.229427 -39.609661 -145.958206 30.428299 -24.168280 120.609818 4.487741 -3.461937 6.731650 7.977950 5.595487 -31.460852 -28.620852 11.815088 127.979004 -5.034964 3.048634 -31.754452 23.595192 39.079247 
0.077450 11.514246 0.077450 7.724313 -3.382095 -25.624044 14.322717 13.923739 -17.612957 10.976563 0.000000 -0.019531 -8.544920 -0.009766 -0.009767 16.516544 12.370691 46.605595 1.992188 -2.001953 0.000341 -39.286076 -55.237350 -22.512518 -60.381592 -0.534810 8.675547 -49.887753 -35.167500 -143.327072 -2.001953 1.992188 0.000000 126.219749 45.880207 76.821960 77.327530 0.499861 8.849734 14.177624 -60.229427 -39.609661 -145.958206 30.428299 -24.168278 120.609818 4.487741 -3.461937 6.731650 7.977950 5.595487 -31.460852 -28.620852 11.815088 127.979004 -5.034963 3.048634 -31.754454 23.595188 39.079247 
0.077450 11.512007 0.077450 7.724313 -3.382095 -25.624044 14.322717 13.923739 -17.612957 10.976563 0.000000 -0.019531 -8.544920 -0.009766 -0.009767 16.516544 12.370691 46.605595 1.992188 -2.001953 0.000341 -39.286076 -55.237350 -22.512518 -60.381592 -0.534810 8.675547 -49.887753 -35.167500 -143.327072 -2.001953 1.992188 0.000000 126.219749 45.880207 76.821960 77.327530 0.499861 8.849734 14.177624 -60.229427 -39.609661 -145.958206 30.428299 -24.168278 120.609818 4.487742 -3.461937 6.731648 7.977951 5.595486 -31.460852 -28.620853 11.815088 127.979004 -5.034964 3.048635 -31.754454 23.595190 39.079247 
0.077450 11.509773 0.077450 7.724313 -3.382095 -25.624044 14.322717 13.923739 -17.612957 10.976563 0.000000 -0.019531 -8.544920 -0.009766 -0.009767 16.516544 12.370691 46.605595 1.992188 -2.001953 0.000341 -39.286076 -55.237350 -22.512518 -60.381592 -0.534810 8.675547 -49.888332 -35.172150 -143.316101 -2.001953 1.992188 0.000000 126.210602 45.881832 76.810936 77.327530 0.499861 8.849734 14.176223 -60.225597 -39.604954 -145.995972 30.410219 -24.173311 120.600174 4.473691 -3.466246 6.774403 7.964684 5.577910 -31.446871 -28.628191 11.865315 127.988335 -5.000095 3.069732 -31.799019 23.608969 39.097034 
0.077450 11.507540 0.077450 7.724313 -3.382095 -25.624044 14.322717 13.923739 -17.612957 10.976563 0.000000 -0.019531 -8.544920 -0.009766 -0.009767 16.516544 12.370691 46.605595 1.992188 -2.001953 0.000341 -39.301903 -55.241089 -22.496469 -60.381592 -0.534810 8.675547 -49.883186 -35.170517 -143.310944 -2.001953 1.992188 0.000000 126.196899 45.872688 76.807953 77.327530 0.499861 8.849734 14.166062 -60.219498 -39.602203 -146.009354 30.389591 -24.164936 120.619896 4.477045 -3.459996 6.793750 7.992226 5.564462 -31.432697 -28.631210 11.880816 127.998344 -4.998000 3.064125 -31.835621 23.629963 39.113239 
0.077450 11.487407 0.077450 7.724313 -3.382095 -25.624044 14.322717 13.923739 -17.612957 10.976563 0.000000 -0.019531 -8.544920 -0.009766 -0.009767 16.516544 12.370691 46.605595 1.992188 -2.001953 0.000341 -39.312786 -55.234901 -22.484142 -60.381592 -0.534810 8.675547 -49.883774 -35.175171 -143.299973 -2.001953 1.992188 0.000000 126.193703 45.882195 76.807953 77.327530 0.499861 8.849734 14.154513 -60.209560 -39.594738 -146.094086 30.359825 -24.208349 120.668831 4.487774 -3.452127 6.807869 7.976555 5.577968 -31.409174 -28.629007 11.897240 128.027969 -5.007806 3.053458 -31.900507 23.631620 39.140743 
0.077450 11.467277 0.077450 7.724313 -3.382095 -25.624044 14.322717 13.923739 -17.612957 10.976563 0.000000 -0.019531 -8.544920 -0.009766 -0.009767 16.516544 12.370691 46.605595 1.992188 -2.001953 0.000341 -39.323669 -55.228714 -22.471811 -60.381592 -0.534810 8.675547 -49.884361 -35.179821 -143.289001 -2.001953 1.992188 0.000000 126.176804 45.882557 76.797958 77.327530 0.499861 8.849734 14.144361 -60.203453 -39.591980 -146.185379 30.321301 -24.255081 120.707596 4.487755 -3.461287 6.831004 7.974218 5.606346 -31.394114 -28.631531 11.902954 128.048279 -5.034204 3.027823 -31.948202 23.635887 39.195095 
0.077450 11.433724 0.077450 7.724313 -3.382095 -25.624044 14.322717 13.923739 -17.612957 10.976563 0.000000 -0.019531 -8.544920 -0.009766 -0.009767 16.516544 12.370691 46.605595 1.992188 -2.001953 0.000341 -39.334549 -55.222527 -22.459476 -60.381592 -0.534810 8.675547 -49.879818 -35.182846 -143.278534 -2.001953 1.992188 0.000000 126.163116 45.873409 76.794983 77.327530 0.499861 8.849734 14.131422 -60.189674 -39.579807 -146.326279 30.263458 -24.299456 120.766335 4.488124 -3.459310 6.891153 7.991011 5.606577 -31.359245 -28.647879 11.961806 128.087021 -5.016793 3.041983 -32.064651 23.640507 39.267525 
0.077450 11.400168 0.077450 7.724313 -3.382095 -25.624044 14.322717 13.923739 -17.612957 10.976563 0.000000 -0.019531 -8.544920 -0.009766 -0.009767 16.516544 12.370691 46.605595 1.992188 -2.001953 0.000341 -39.353226 -55.214386 -22.426203 -60.381592 -0.534810 8.675547 -49.875278 -35.185883 -143.262421 -2.001953 1.992188 0.000000 126.141693 45.862991 76.786026 77.327530 0.499861 8.849734 14.119896 -60.179737 -39.563866 -146.434769 30.214766 -24.325935 120.844650 4.506378 -3.446772 6.973681 8.007266 5.593560 -31.344486 -28.670143 12.001869 128.135727 -5.025283 3.043925 -32.156162 23.642542 39.302071 
0.077450 11.357673 0.077450 7.724313 -3.382095 -25.624044 14.322717 13.923739 -17.612957 10.976563 0.000000 -0.019531 -8.544920 -0.009766 -0.009767 16.516544 12.370691 46.605595 1.992188 -2.001953 0.000341 -39.370232 -55.199707 -22.423088 -60.381592 -0.534810 8.675547 -49.880318 -35.183071 -143.246323 -2.001953 1.992188 0.000000 126.122093 45.845951 76.772034 77.327530 0.499861 8.849734 14.108375 -60.169788 -39.556393 -146.595505 30.145491 -24.378572 120.903664 4.506415 -3.436916 7.059171 8.019653 5.621629 -31.290937 -28.677238 12.064440 128.174042 -5.017446 3.067454 -32.266247 23.626902 39.359348 
0.077450 11.315183 0.077450 7.724313 -3.382095 -25.624044 14.322717 13.923739 -17.612957 10.976563 0.000000 -0.019531 -8.544920 -0.009766 -0.009767 16.516544 12.370691 46.605595 1.992188 -2.001953 0.000341 -39.384151 -55.189266 -22.419382 -60.381592 -0.534810 8.675547 -49.871353 -35.193581 -143.240997 -2.001953 1.992188 0.000000 126.108429 45.836796 76.769066 77.327530 0.499861 8.849734 14.086722 -60.153736 -39.546158 -146.760788 30.086802 -24.427961 120.981964 4.516148 -3.429326 7.126041 8.016685 5.624860 -31.244047 -28.688068 12.096711 128.223267 -5.027271 3.056031 -32.395878 23.651525 39.437305 
